<svg width="462" height="240" viewBox="0 0 462 240" fill="none" xmlns="http://www.w3.org/2000/svg">
<g clip-path="url(#clip0_252_3)">
<path d="M373.578 93.1021C370.071 85.9941 365.012 80.525 358.409 76.7248C351.803 72.8926 343.895 71 334.728 71H304.728H303.728V72V165.091V166.091H304.728H333.455C343.04 166.091 351.248 164.201 358.037 160.371L358.04 160.369C364.824 156.511 369.992 150.997 373.533 143.853C377.07 136.686 378.818 128.178 378.818 118.364C378.818 108.611 377.086 100.179 373.578 93.1021ZM373.578 93.1021L372.682 93.5455L373.579 93.1029L373.578 93.1021ZM362.316 99.3649V99.3668C364.699 104.632 365.909 110.955 365.909 118.364C365.909 125.833 364.684 132.216 362.271 137.542C359.869 142.844 356.235 146.912 351.358 149.774C346.491 152.63 340.301 154.091 332.728 154.091H317V83H334C341.141 83 347.026 84.4428 351.711 87.2656L351.715 87.268C356.408 90.0663 359.94 94.0868 362.316 99.3649Z" fill="white"/>
<path d="M373.578 93.1021C370.071 85.9941 365.012 80.525 358.409 76.7248C351.803 72.8926 343.895 71 334.728 71H304.728H303.728V72V165.091V166.091H304.728H333.455C343.04 166.091 351.248 164.201 358.037 160.371L358.04 160.369C364.824 156.511 369.992 150.997 373.533 143.853C377.07 136.686 378.818 128.178 378.818 118.364C378.818 108.611 377.086 100.179 373.578 93.1021ZM373.578 93.1021L372.682 93.5455L373.579 93.1029L373.578 93.1021ZM362.316 99.3649V99.3668C364.699 104.632 365.909 110.955 365.909 118.364C365.909 125.833 364.684 132.216 362.271 137.542C359.869 142.844 356.235 146.912 351.358 149.774C346.491 152.63 340.301 154.091 332.728 154.091H317V83H334C341.141 83 347.026 84.4428 351.711 87.2656L351.715 87.268C356.408 90.0663 359.94 94.0868 362.316 99.3649Z" stroke="white" stroke-width="2"/>
<path d="M19 70.9091H18V71.9091V165V166H19H29.5455H30.5455V165V95.9238L58.7835 129.148L59.083 129.5H59.5455H69.7273H70.1897L70.4892 129.148L98.7273 95.9238V165V166H99.7273H110.273H111.273V165V71.9091V70.9091H110.273H96.8182H96.3284L96.0281 71.296L64.692 111.682H64.5807L33.2446 71.296L32.9443 70.9091H32.4545H19Z" fill="white" stroke="white" stroke-width="2"/>
<path d="M260.268 95.5743L260.27 95.5756C263.991 97.5376 266.939 100.426 269.12 104.269L269.122 104.273C271.313 108.088 272.436 112.814 272.436 118.5C272.436 124.186 271.313 128.912 269.122 132.727L269.12 132.731C266.939 136.574 263.991 139.462 260.27 141.424L260.268 141.426C256.554 143.397 252.381 144.392 247.728 144.392C243.075 144.392 238.888 143.397 235.147 141.425C231.452 139.463 228.503 136.574 226.295 132.729C224.13 128.914 223.02 124.186 223.02 118.5C223.02 112.814 224.13 108.086 226.295 104.271C228.503 100.426 231.452 97.5368 235.147 95.5751C238.888 93.6028 243.075 92.6084 247.728 92.6084C252.381 92.6084 256.554 93.603 260.268 95.5743ZM279.061 137.37C282.186 132.031 283.728 125.728 283.728 118.5C283.728 111.272 282.186 104.969 279.061 99.6299C275.947 94.3106 271.669 90.2004 266.239 87.3147C260.81 84.4296 254.632 83 247.728 83C240.824 83 234.645 84.4296 229.216 87.3147C223.787 90.2004 219.508 94.3106 216.394 99.6299C213.269 104.969 211.728 111.272 211.728 118.5C211.728 125.728 213.269 132.031 216.394 137.37C219.508 142.689 223.787 146.8 229.216 149.685C234.645 152.57 240.824 154 247.728 154C254.632 154 260.81 152.57 266.239 149.685C271.669 146.8 275.947 142.689 279.061 137.37Z" fill="white" stroke="white" stroke-width="2"/>
<path d="M177.268 95.5743L177.27 95.5756C180.991 97.5376 183.939 100.426 186.12 104.269L186.123 104.273C188.313 108.088 189.436 112.814 189.436 118.5C189.436 124.186 188.313 128.912 186.122 132.727L186.12 132.731C183.939 136.574 180.991 139.462 177.27 141.424L177.268 141.426C173.554 143.397 169.381 144.392 164.728 144.392C160.075 144.392 155.888 143.397 152.147 141.425C148.452 139.463 145.503 136.574 143.295 132.729C141.13 128.914 140.02 124.186 140.02 118.5C140.02 112.814 141.13 108.086 143.295 104.271C145.503 100.426 148.453 97.5367 152.148 95.575C155.888 93.6027 160.075 92.6084 164.728 92.6084C169.381 92.6084 173.554 93.603 177.268 95.5743ZM196.061 137.37C199.186 132.031 200.728 125.728 200.728 118.5C200.728 111.272 199.186 104.969 196.061 99.6299C192.947 94.3106 188.669 90.2004 183.239 87.3147C177.81 84.4296 171.632 83 164.728 83C157.824 83 151.645 84.4296 146.216 87.3147C140.787 90.2004 136.508 94.3106 133.394 99.6299C130.269 104.969 128.728 111.272 128.728 118.5C128.728 125.728 130.269 132.031 133.394 137.37C136.508 142.689 140.787 146.8 146.216 149.685C151.645 152.57 157.824 154 164.728 154C171.632 154 177.81 152.57 183.239 149.685C188.669 146.8 192.947 142.689 196.061 137.37Z" fill="white" stroke="white" stroke-width="2"/>
<path d="M194.728 110.5L210.228 23H292.228L277.228 110.5" stroke="white" stroke-width="13"/>
<path d="M124.642 210V188.182H132.014C133.726 188.182 135.125 188.491 136.212 189.109C137.305 189.719 138.115 190.547 138.641 191.591C139.166 192.635 139.429 193.8 139.429 195.085C139.429 196.371 139.166 197.539 138.641 198.59C138.122 199.641 137.32 200.479 136.233 201.104C135.146 201.722 133.754 202.031 132.057 202.031H126.773V199.688H131.972C133.143 199.688 134.085 199.485 134.795 199.08C135.505 198.675 136.02 198.129 136.339 197.44C136.666 196.744 136.83 195.959 136.83 195.085C136.83 194.212 136.666 193.43 136.339 192.741C136.02 192.053 135.501 191.513 134.784 191.122C134.067 190.724 133.115 190.526 131.929 190.526H127.284V210H124.642ZM162.094 199.091C162.094 201.392 161.679 203.381 160.848 205.057C160.017 206.733 158.877 208.026 157.428 208.935C155.979 209.844 154.324 210.298 152.463 210.298C150.603 210.298 148.948 209.844 147.499 208.935C146.05 208.026 144.91 206.733 144.079 205.057C143.248 203.381 142.833 201.392 142.833 199.091C142.833 196.79 143.248 194.801 144.079 193.125C144.91 191.449 146.05 190.156 147.499 189.247C148.948 188.338 150.603 187.884 152.463 187.884C154.324 187.884 155.979 188.338 157.428 189.247C158.877 190.156 160.017 191.449 160.848 193.125C161.679 194.801 162.094 196.79 162.094 199.091ZM159.537 199.091C159.537 197.202 159.221 195.607 158.589 194.308C157.964 193.008 157.115 192.024 156.043 191.357C154.978 190.689 153.784 190.355 152.463 190.355C151.142 190.355 149.946 190.689 148.873 191.357C147.808 192.024 146.959 193.008 146.327 194.308C145.702 195.607 145.39 197.202 145.39 199.091C145.39 200.98 145.702 202.575 146.327 203.874C146.959 205.174 147.808 206.158 148.873 206.825C149.946 207.493 151.142 207.827 152.463 207.827C153.784 207.827 154.978 207.493 156.043 206.825C157.115 206.158 157.964 205.174 158.589 203.874C159.221 202.575 159.537 200.98 159.537 199.091ZM170.5 210L164.534 188.182H167.218L171.778 205.952H171.991L176.636 188.182H179.619L184.264 205.952H184.477L189.037 188.182H191.721L185.755 210H183.028L178.213 192.614H178.042L173.227 210H170.5ZM195.013 210V188.182H208.181V190.526H197.655V197.898H207.499V200.241H197.655V207.656H208.351V210H195.013ZM212.943 210V188.182H220.315C222.02 188.182 223.419 188.473 224.512 189.055C225.606 189.631 226.416 190.423 226.941 191.431C227.467 192.44 227.73 193.587 227.73 194.872C227.73 196.158 227.467 197.298 226.941 198.292C226.416 199.286 225.61 200.067 224.523 200.636C223.436 201.197 222.048 201.477 220.358 201.477H214.392V199.091H220.272C221.437 199.091 222.375 198.92 223.085 198.58C223.802 198.239 224.321 197.756 224.64 197.131C224.967 196.499 225.13 195.746 225.13 194.872C225.13 193.999 224.967 193.235 224.64 192.582C224.314 191.928 223.792 191.424 223.074 191.069C222.357 190.707 221.409 190.526 220.23 190.526H215.585V210H212.943ZM223.213 200.199L228.582 210H225.514L220.23 200.199H223.213ZM232.132 210V188.182H245.3V190.526H234.774V197.898H244.618V200.241H234.774V207.656H245.47V210H232.132ZM256.795 210H250.062V188.182H257.093C259.21 188.182 261.021 188.619 262.526 189.492C264.032 190.359 265.186 191.605 265.989 193.232C266.791 194.851 267.193 196.79 267.193 199.048C267.193 201.321 266.788 203.278 265.978 204.918C265.169 206.552 263.99 207.809 262.441 208.69C260.893 209.563 259.011 210 256.795 210ZM252.704 207.656H256.624C258.428 207.656 259.923 207.308 261.11 206.612C262.296 205.916 263.18 204.925 263.762 203.64C264.345 202.354 264.636 200.824 264.636 199.048C264.636 197.287 264.348 195.771 263.773 194.499C263.198 193.221 262.338 192.241 261.195 191.559C260.051 190.87 258.627 190.526 256.923 190.526H252.704V207.656ZM280.062 210V188.182H287.69C289.21 188.182 290.463 188.445 291.45 188.97C292.438 189.489 293.173 190.188 293.656 191.069C294.139 191.942 294.38 192.912 294.38 193.977C294.38 194.915 294.213 195.689 293.879 196.3C293.553 196.911 293.119 197.393 292.58 197.749C292.047 198.104 291.468 198.366 290.843 198.537V198.75C291.511 198.793 292.182 199.027 292.857 199.453C293.531 199.879 294.096 200.49 294.551 201.286C295.005 202.081 295.232 203.054 295.232 204.205C295.232 205.298 294.984 206.282 294.487 207.156C293.99 208.029 293.205 208.722 292.132 209.233C291.06 209.744 289.664 210 287.945 210H280.062ZM282.704 207.656H287.945C289.671 207.656 290.896 207.322 291.621 206.655C292.352 205.98 292.718 205.163 292.718 204.205C292.718 203.466 292.53 202.784 292.154 202.159C291.777 201.527 291.241 201.023 290.545 200.646C289.849 200.263 289.025 200.071 288.073 200.071H282.704V207.656ZM282.704 197.77H287.605C288.4 197.77 289.117 197.614 289.757 197.301C290.403 196.989 290.914 196.548 291.291 195.98C291.674 195.412 291.866 194.744 291.866 193.977C291.866 193.018 291.532 192.205 290.865 191.538C290.197 190.863 289.139 190.526 287.69 190.526H282.704V197.77ZM297.699 188.182H300.724L306.775 198.366H307.031L313.082 188.182H316.108L308.224 201.009V210H305.582V201.009L297.699 188.182ZM327.962 210V188.182H341.13V190.526H330.604V197.898H340.448V200.241H330.604V207.656H341.3V210H327.962ZM360.21 188.182H362.852V202.628C362.852 204.119 362.501 205.451 361.798 206.623C361.102 207.788 360.118 208.707 358.847 209.382C357.575 210.05 356.084 210.384 354.372 210.384C352.661 210.384 351.169 210.05 349.898 209.382C348.626 208.707 347.639 207.788 346.936 206.623C346.24 205.451 345.892 204.119 345.892 202.628V188.182H348.534V202.415C348.534 203.48 348.768 204.428 349.237 205.259C349.706 206.083 350.374 206.733 351.24 207.209C352.114 207.678 353.158 207.912 354.372 207.912C355.587 207.912 356.631 207.678 357.504 207.209C358.378 206.733 359.045 206.083 359.507 205.259C359.976 204.428 360.21 203.48 360.21 202.415V188.182ZM368.128 210V188.182H375.501C377.205 188.182 378.604 188.473 379.698 189.055C380.792 189.631 381.601 190.423 382.127 191.431C382.653 192.44 382.915 193.587 382.915 194.872C382.915 196.158 382.653 197.298 382.127 198.292C381.601 199.286 380.795 200.067 379.709 200.636C378.622 201.197 377.233 201.477 375.543 201.477H369.577V199.091H375.458C376.623 199.091 377.56 198.92 378.27 198.58C378.988 198.239 379.506 197.756 379.826 197.131C380.153 196.499 380.316 195.746 380.316 194.872C380.316 193.999 380.153 193.235 379.826 192.582C379.499 191.928 378.977 191.424 378.26 191.069C377.542 190.707 376.594 190.526 375.415 190.526H370.77V210H368.128ZM378.398 200.199L383.768 210H380.699L375.415 200.199H378.398ZM387.318 210V188.182H400.485V190.526H389.96V197.898H399.804V200.241H389.96V207.656H400.656V210H387.318ZM405.248 210V188.182H407.89V199.006H408.145L417.946 188.182H421.398L412.236 198.026L421.398 210H418.202L410.617 199.858L407.89 202.926V210H405.248ZM425.713 210H422.943L430.954 188.182H433.681L441.693 210H438.923L432.403 191.634H432.233L425.713 210ZM426.735 201.477H437.9V203.821H426.735V201.477Z" fill="white"/>
</g>
<defs>
<clipPath id="clip0_252_3">
<rect width="462" height="240" fill="white"/>
</clipPath>
</defs>
</svg>
