<svg width="199" height="199" viewBox="0 0 199 199" fill="none" xmlns="http://www.w3.org/2000/svg">
<rect width="199" height="199" rx="38" fill="#F6F6F6"/>
<path d="M24.0513 41H23V42.0513V139.919V140.971H24.0513H35.138H36.1893V139.919V67.2984L65.8764 102.228L66.1913 102.598H66.6775H77.3818H77.8679L78.1828 102.228L107.87 67.2984L107.87 113.5V114.551H108.921H120.008H121.06V113.5L121.06 42.0513V41H120.008H105.863H105.348L105.032 41.4067L72.0881 83.8652H71.9711L39.0269 41.4067L38.7112 41H38.1963H24.0513Z" fill="black" stroke="black" stroke-width="2"/>
<path d="M184.083 45.1338C184.709 41.599 182.351 38.2258 178.816 37.5996C175.282 36.9735 171.908 39.3314 171.282 42.8662L184.083 45.1338ZM167.788 137.124L184.083 45.1338L171.282 42.8662L154.987 134.856L167.788 137.124Z" fill="black"/>
<path d="M143.031 120.299L143.033 120.3C146.945 122.363 150.044 125.399 152.337 129.439L152.34 129.444C154.643 133.454 155.823 138.423 155.823 144.401C155.823 150.379 154.643 155.347 152.339 159.358L152.337 159.362C150.044 163.402 146.945 166.438 143.033 168.501L143.031 168.503C139.126 170.575 134.739 171.621 129.847 171.621C124.956 171.621 120.554 170.575 116.621 168.502C112.736 166.44 109.636 163.402 107.315 159.36C105.038 155.349 103.871 150.379 103.871 144.401C103.871 138.423 105.038 133.452 107.315 129.442C109.636 125.399 112.737 122.362 116.622 120.299C120.554 118.226 124.956 117.181 129.847 117.181C134.739 117.181 139.126 118.226 143.031 120.299ZM162.788 164.239C166.074 158.626 167.695 152 167.695 144.401C167.695 136.802 166.074 130.175 162.788 124.562C159.515 118.97 155.017 114.649 149.308 111.615C143.601 108.582 137.106 107.079 129.847 107.079C122.589 107.079 116.093 108.582 110.385 111.615C104.678 114.649 100.179 118.97 96.9054 124.562C93.6201 130.175 92 136.802 92 144.401C92 152 93.6201 158.626 96.9054 164.239C100.179 169.831 104.678 174.153 110.385 177.186C116.093 180.219 122.589 181.723 129.847 181.723C137.106 181.723 143.601 180.219 149.308 177.186C155.017 174.153 159.515 169.831 162.788 164.239Z" fill="black" stroke="black" stroke-width="2"/>
</svg>
